# xmcd
#
# Track frame offsets:
#	150
#	15420
#	27396
#	41531
#	53731
#	66209
#	76583
#	89357
#	101982
#	114219
#	125129
#	138402
#
# Disc length: 2005 seconds
#
# Revision: 1
# Processed by: cddbd v1.5.2PL0 Copyright (c) Steve Scherf et al.
# Submitted via: audiograbber 1.83.01
#
DISCID=9707d30c
DTITLE=Johnny Paycheck - Wherever You Are
DYEAR=1969
DGENRE=Country
TTITLE0=Wherever You Are
TTITLE1=There's No Easy Way To Die
TTITLE2=Step Into My Soul
TTITLE3=Wildfire
TTITLE4=Where All Good Daddy's Go
TTITLE5=California Dream
TTITLE6=That's The Story
TTITLE7=You Tell Me Your Troubles
TTITLE8=If I'm Gonna Sink
TTITLE9=The Loser
TTITLE10=Everything You Touch Turns To Hurt
TTITLE11=My World Of Memories
EXTD=
EXTT0=
EXTT1=
EXTT2=
EXTT3=
EXTT4=
EXTT5=
EXTT6=
EXTT7=
EXTT8=
EXTT9=
EXTT10=
EXTT11=
PLAYORDER=
